<?xml version="1.0" encoding="UTF-8" standalone="no"?>

<svg
   xmlns="http://www.w3.org/2000/svg"
   width="32.840729mm"
   height="29.625149mm"
   viewBox="0 0 116.36479 104.971"
   version="1.1">
  <defs
     id="defs4230" />
  <g
     inkscape:label="Layer 1"
     inkscape:groupmode="layer"
     id="layer1"
     transform="translate(-244.67475,-525.59103)">
    <path
       d="m 307.03657,588.62603 c -0.83875,0 -1.64,-0.4813 -2.01,-1.295 -0.505,-1.11 -0.015,-2.4188 1.09625,-2.9225 l 1.18125,-0.5438 c 1.10625,-0.51 2.4175,-0.033 2.9325,1.0725 0.51375,1.105 0.0337,2.4175 -1.07125,2.9325 l -1.2175,0.5575 c -0.295,0.1338 -0.605,0.1988 -0.91125,0.1988 m -6.26875,2.74 c -0.86,0 -1.67625,-0.505 -2.03375,-1.3463 -0.475,-1.1212 0.0475,-2.4162 1.17,-2.8937 l 1.2025,-0.5138 c 1.12375,-0.4825 2.41875,0.035 2.9,1.155 0.48125,1.12 -0.035,2.4175 -1.155,2.9 l -1.2225,0.5238 c -0.28125,0.1175 -0.57375,0.175 -0.86125,0.175 m -6.31,2.645 c -0.86625,0 -1.6875,-0.515 -2.04,-1.3638 -0.46625,-1.1262 0.0688,-2.4175 1.195,-2.8837 l 1.215,-0.505 c 1.1225,-0.465 2.4175,0.066 2.885,1.1912 0.46875,1.125 -0.065,2.4175 -1.19125,2.8863 l -1.22,0.505 c -0.275,0.115 -0.56125,0.17 -0.84375,0.17 m -6.3325,2.59 c -0.87375,0 -1.70125,-0.5238 -2.04875,-1.385 -0.45375,-1.13 0.0937,-2.4163 1.22375,-2.87 l 1.215,-0.4938 c 1.12625,-0.4612 2.41625,0.084 2.87625,1.2138 0.45875,1.1287 -0.0838,2.4162 -1.21375,2.8762 l -1.22875,0.4975 c -0.27,0.1088 -0.54875,0.1613 -0.82375,0.1613 m -6.34375,2.5562 c -0.875,0 -1.70375,-0.525 -2.05,-1.3887 -0.45375,-1.1313 0.0962,-2.415 1.22875,-2.8675 l 1.2225,-0.4913 c 1.1325,-0.4575 2.4175,0.095 2.87125,1.2263 0.45375,1.1325 -0.0962,2.4162 -1.22625,2.87 l -1.22625,0.4925 c -0.26875,0.1075 -0.54625,0.1587 -0.82,0.1587 m -6.355,2.5313 c -0.87625,0 -1.70625,-0.5275 -2.05125,-1.3913 -0.45125,-1.1325 0.1025,-2.4162 1.235,-2.8675 l 1.22875,-0.4887 c 1.135,-0.4513 2.415,0.105 2.865,1.24 0.44875,1.1325 -0.105,2.415 -1.23875,2.865 l -1.2225,0.485 c -0.2675,0.1062 -0.54375,0.1575 -0.81625,0.1575 m -6.36,2.5162 c -0.88125,0 -1.7125,-0.53 -2.055,-1.3975 -0.44625,-1.1337 0.11,-2.4162 1.24375,-2.8637 l 1.225,-0.4838 c 1.13375,-0.4475 2.41625,0.1088 2.86375,1.2425 0.4475,1.1338 -0.10875,2.4163 -1.2425,2.8638 l -1.22625,0.4837 c -0.265,0.105 -0.54,0.155 -0.80875,0.155 m -6.36875,2.5025 c -0.88,0 -1.71125,-0.5312 -2.05375,-1.3987 -0.4475,-1.135 0.11,-2.4163 1.245,-2.8625 l 1.2325,-0.485 c 1.13375,-0.4463 2.415,0.1175 2.85875,1.2512 0.44375,1.135 -0.11625,2.4163 -1.25125,2.86 l -1.2225,0.48 c -0.26625,0.105 -0.53875,0.155 -0.80875,0.155"
       style="fill:#1d1d1b;fill-opacity:1;fill-rule:nonzero;stroke:none"
       id="path3607"
       inkscape:connector-curvature="0" />
    <path
       d="m 247.22944,613.17313 c -0.57625,0 -1.155,-0.1938 -1.6325,-0.5913 -1.08625,-0.9012 -1.23375,-2.5125 -0.33125,-3.6 1.7025,-2.0475 41.79,-50.2262 49.36375,-55.6437 8.52625,-6.0988 20.4275,-4.125 26.5275,4.4037 6.09875,8.5288 4.12375,20.4275 -4.40375,26.5275 -1.14875,0.82 -2.745,0.5563 -3.56625,-0.5925 -0.82125,-1.1475 -0.55625,-2.7437 0.5925,-3.565 6.235,-4.46 7.67875,-13.1612 3.22,-19.3962 -4.45875,-6.2338 -13.15875,-7.68 -19.39625,-3.22 -5.84375,4.1812 -36.925,40.9425 -48.4075,54.7562 -0.505,0.6075 -1.23375,0.9213 -1.96625,0.9213"
       style="fill:#1d1d1b;fill-opacity:1;fill-rule:nonzero;stroke:none"
       id="path3611"
       inkscape:connector-curvature="0" />
    <path
       d="m 309.80032,630.56203 c -1.4475,0 -2.62125,-1.1738 -2.62125,-2.6225 l 0,-14.7 -40.295,0 c -1.44875,0 -2.6225,-1.175 -2.6225,-2.6225 0,-1.4475 1.17375,-2.6225 2.6225,-2.6225 l 42.91625,0 c 1.4475,0 2.62125,1.175 2.62125,2.6225 l 0,17.3225 c 0,1.4487 -1.17375,2.6225 -2.62125,2.6225"
       style="fill:#868686;fill-opacity:1;fill-rule:nonzero;stroke:none"
       id="path3615"
       inkscape:connector-curvature="0" />
    <path
       d="m 317.47245,612.58473 c -1.2325,0 -2.3175,-0.8937 -2.52,-2.15 -0.225,-1.3937 0.72375,-2.705 2.11625,-2.9287 19.09,-3.0738 24.13375,-17.6863 24.13375,-24.9838 l 0,-34.7912 c 0,-9.39 -7.6375,-17.0275 -17.0275,-17.0275 -7.975,0 -14.7975,5.4175 -16.59,13.1762 -0.3175,1.3763 -1.69125,2.2338 -3.06625,1.9138 -1.375,-0.3175 -2.2325,-1.69 -1.915,-3.0663 2.3325,-10.0887 11.2025,-17.1362 21.57125,-17.1362 12.2075,0 22.14,9.9325 22.14,22.14 l 0,34.7912 c 0,12.2588 -8.8975,26.8838 -28.4325,30.03 -0.13875,0.021 -0.275,0.033 -0.41,0.033"
       style="fill:#1d1d1b;fill-opacity:1;fill-rule:nonzero;stroke:none"
       id="path3619"
       inkscape:connector-curvature="0" />
    <path
       d="m 351.30119,559.84553 c -1.0125,0 -1.97625,-0.59 -2.405,-1.5775 -0.5775,-1.3275 0.0312,-2.8725 1.35875,-3.4488 l 2.99875,-1.3025 -4.61625,-3.485 c -1.155,-0.8712 -1.385,-2.515 -0.51375,-3.6712 0.87375,-1.155 2.5175,-1.3863 3.6725,-0.5125 l 8.20125,6.1887 c 0.74375,0.5613 1.13375,1.4763 1.02375,2.4013 -0.11,0.9262 -0.70375,1.7237 -1.5575,2.0962 l -7.11875,3.0938 c -0.34,0.1475 -0.695,0.2175 -1.04375,0.2175"
       style="fill:#868686;fill-opacity:1;fill-rule:nonzero;stroke:none"
       id="path3623"
       inkscape:connector-curvature="0" />
    <path
       d="m 295.00845,630.49613 c -1.41125,0 -2.55625,-1.145 -2.55625,-2.5563 l 0,-10.625 c 0,-1.4112 1.145,-2.5562 2.55625,-2.5562 1.41125,0 2.55625,1.145 2.55625,2.5562 l 0,10.625 c 0,1.4113 -1.145,2.5563 -2.55625,2.5563"
       style="fill:#1d1d1b;fill-opacity:1;fill-rule:nonzero;stroke:none"
       id="path3627"
       inkscape:connector-curvature="0" />
  </g>
</svg>
