<?xml version="1.0" encoding="utf-8"?>
<!-- Generated by IcoMoon.io -->
<!DOCTYPE svg PUBLIC "-//W3C//DTD SVG 1.1//EN" "http://www.w3.org/Graphics/SVG/1.1/DTD/svg11.dtd">
<svg version="1.1" xmlns="http://www.w3.org/2000/svg" xmlns:xlink="http://www.w3.org/1999/xlink" width="32" height="32" viewBox="0 0 32 32">
<path fill="#f7d558" d="M21.317 21.287c0.025-0.044 0.049-0.088 0.071-0.132 0.042-0.066 0.083-0.134 0.122-0.202 1.586-2.747 0.632-6.268-2.132-7.863s-6.289-0.662-7.875 2.085c-0.040 0.069-0.078 0.138-0.114 0.207-0.027 0.041-0.054 0.084-0.079 0.127l-1.53 2.65c-0.035 0.053-0.063 0.11-0.096 0.166-0.444 0.769-1.395 1.065-2.194 0.711-0.923-0.521-2.099-0.208-2.627 0.706-0.529 0.916-0.212 2.088 0.711 2.621l12.675 7.318c0.921 0.532 2.098 0.219 2.625-0.695 0.529-0.916 0.212-2.088-0.711-2.621-0.696-0.518-0.918-1.492-0.473-2.263 0.032-0.056 0.067-0.11 0.105-0.16l1.521-2.655z"></path>
<path fill="none" stroke="#000" stroke-width="1.4222" stroke-miterlimit="4" stroke-linecap="butt" stroke-linejoin="miter" d="M19.817 19.192c0.023-0.040 0.045-0.081 0.066-0.123 0.039-0.062 0.077-0.124 0.114-0.188 1.473-2.551 0.599-5.813-1.952-7.285s-5.813-0.599-7.285 1.952c-0.037 0.064-0.072 0.128-0.106 0.193-0.026 0.038-0.050 0.078-0.073 0.118l-1.421 2.461c-0.032 0.049-0.059 0.102-0.089 0.154-0.412 0.714-1.293 0.99-2.030 0.665-0.852-0.481-1.94-0.188-2.43 0.661-0.491 0.85-0.201 1.937 0.651 2.429l11.7 6.755c0.85 0.491 1.939 0.198 2.429-0.651 0.491-0.85 0.201-1.937-0.651-2.428-0.642-0.478-0.845-1.381-0.432-2.097 0.030-0.052 0.063-0.102 0.097-0.149l1.412-2.466z"></path>
<path fill="#9e74f2" d="M16.446 4.9c0.644-1.127 1.572-1.072 2.074 0.125l0.486 1.159c0.152 0.363 0.394 0.953 0.541 1.321l0.387 0.967c0.147 0.366-0.051 0.629-0.441 0.586l-2.766-0.302c-1.292-0.141-1.817-1.168-1.173-2.296l0.891-1.561zM26.465 10.659c0.747-1.294 0.153-2.532-1.324-2.764l-2.999-0.472c-0.387-0.061-0.723 0.21-0.75 0.6l-0.077 1.105c-0.027 0.392 0.128 0.974 0.347 1.299l1.144 1.7c0.836 1.242 2.118 1.2 2.866-0.094l0.793-1.374z"></path>
<path fill="none" stroke="#000" stroke-width="1.4222" stroke-miterlimit="4" stroke-linecap="butt" stroke-linejoin="miter" d="M15.581 4.525c0.566-0.98 1.571-1.035 2.242-0.127l1.126 1.523c0.234 0.316 0.264 0.848 0.069 1.186l-0.138 0.24c-0.196 0.339-0.672 0.577-1.061 0.533l-1.882-0.213c-1.124-0.127-1.576-1.025-1.011-2.005l0.656-1.136z"></path>
<path fill="none" stroke="#000" stroke-width="1.4222" stroke-miterlimit="4" stroke-linecap="butt" stroke-linejoin="miter" d="M25.435 10.214c0.566-0.98 0.111-1.878-1.011-2.005l-1.882-0.213c-0.391-0.044-0.867 0.196-1.061 0.533l-0.138 0.24c-0.196 0.339-0.164 0.87 0.069 1.186l1.126 1.523c0.672 0.91 1.676 0.852 2.242-0.127l0.656-1.136z"></path>
<path fill="#9e74f1" d="M21.652 8.943c-0.54 0.935-1.736 1.256-2.671 0.716s-1.256-1.736-0.716-2.671c0.54-0.935 1.736-1.256 2.671-0.716s1.256 1.736 0.716 2.671z"></path>
<path fill="none" stroke="#000" stroke-width="1.4222" stroke-miterlimit="4" stroke-linecap="butt" stroke-linejoin="miter" d="M21.652 8.943c-0.54 0.935-1.736 1.256-2.671 0.716s-1.256-1.736-0.716-2.671c0.54-0.935 1.736-1.256 2.671-0.716s1.256 1.736 0.716 2.671z"></path>
</svg>
