<?xml version="1.0" encoding="utf-8"?>
<!-- Generated by IcoMoon.io -->
<!DOCTYPE svg PUBLIC "-//W3C//DTD SVG 1.1//EN" "http://www.w3.org/Graphics/SVG/1.1/DTD/svg11.dtd">
<svg version="1.1" xmlns="http://www.w3.org/2000/svg" xmlns:xlink="http://www.w3.org/1999/xlink" width="32" height="32" viewBox="0 0 32 32">
<path fill="none" stroke="#fff" stroke-width="1.4222" stroke-miterlimit="4" stroke-linecap="butt" stroke-linejoin="miter" d="M19.817 19.192c0.023-0.040 0.045-0.081 0.066-0.123 0.039-0.062 0.077-0.124 0.114-0.188 1.473-2.551 0.599-5.813-1.952-7.285s-5.813-0.599-7.285 1.952c-0.037 0.064-0.072 0.128-0.106 0.193-0.026 0.038-0.050 0.078-0.073 0.118l-1.421 2.461c-0.032 0.049-0.059 0.102-0.089 0.154-0.412 0.714-1.293 0.99-2.030 0.665-0.852-0.481-1.94-0.188-2.43 0.661-0.491 0.85-0.201 1.937 0.651 2.429l11.7 6.755c0.85 0.491 1.939 0.198 2.429-0.651 0.491-0.85 0.201-1.937-0.651-2.428-0.642-0.478-0.845-1.381-0.432-2.097 0.030-0.052 0.063-0.102 0.097-0.149l1.412-2.466z"></path>
<path fill="none" stroke="#fff" stroke-width="1.4222" stroke-miterlimit="4" stroke-linecap="butt" stroke-linejoin="miter" d="M17.752 7.872c-0.605-0.069-1.818-0.206-1.818-0.206-1.123-0.127-1.574-1.025-1.011-2.001l0.66-1.142c0.565-0.978 1.567-1.034 2.237-0.128l1.25 1.777"></path>
<path fill="none" stroke="#fff" stroke-width="1.4222" stroke-miterlimit="4" stroke-linecap="butt" stroke-linejoin="miter" d="M20.847 9.627c0 0 0.028 0.038 0.041 0.055 0.362 0.49 1.088 1.472 1.088 1.472 0.672 0.909 1.675 0.851 2.239-0.125l0.66-1.142c0.565-0.978 0.112-1.874-1.008-2.001l-2.005-0.162"></path>
<path fill="#fff" d="M18.625 10.275c1.275 0.736 2.906 0.299 3.643-0.976s0.299-2.906-0.976-3.643c-1.275-0.736-2.906-0.299-3.643 0.976s-0.299 2.906 0.976 3.643v0zM19.337 9.043c-0.595-0.344-0.799-1.105-0.456-1.7s1.105-0.799 1.7-0.455c0.595 0.344 0.799 1.105 0.456 1.7s-1.105 0.799-1.7 0.456v0z"></path>
</svg>
