<?xml version="1.0" encoding="utf-8"?>
<!-- Generated by IcoMoon.io -->
<!DOCTYPE svg PUBLIC "-//W3C//DTD SVG 1.1//EN" "http://www.w3.org/Graphics/SVG/1.1/DTD/svg11.dtd">
<svg version="1.1" xmlns="http://www.w3.org/2000/svg" xmlns:xlink="http://www.w3.org/1999/xlink" width="32" height="32" viewBox="0 0 32 32">
<path fill="#ea5d5d" d="M19.556 11.733h-0.001c-0.034-2.274-1.69-3.911-3.484-3.911-2.287 0-3.948 1.637-3.982 3.911h-0.006c0.004 0.059 0.006 0.118 0.006 0.178 0 1.473-1.194 2.667-2.667 2.667s-2.667-1.194-2.667-2.667c0-1.123 0.694-2.084 1.677-2.477 0.903-3.38 4.108-5.879 7.923-5.879 4.516 0 8.178 3.502 8.178 7.822 0 0.108-0.002 0.216-0.007 0.323 0.004 0.012 0.007 0.023 0.007 0.033v12.8c0 1.375-1.114 2.489-2.489 2.489s-2.489-1.114-2.489-2.489v-12.8z"></path>
<path fill="#2b2d2b" d="M18.489 12.444c0-1.972-1.444-3.556-3.2-3.556-2.043 0-3.556 1.512-3.556 3.556 0 0.982-0.796 1.778-1.778 1.778s-1.778-0.796-1.778-1.778c0-0.057 0.003-0.113 0.008-0.169 0.197-3.697 3.236-6.587 6.925-6.587 3.716 0 6.768 2.93 6.927 6.63 0.005 0.072 0.006 0.116 0.007 0.137l-0 12.433c0 0.982-0.796 1.778-1.778 1.778s-1.778-0.796-1.778-1.778v-12.444zM17.067 12.444v12.444c0 1.767 1.433 3.2 3.2 3.2s3.2-1.433 3.2-3.2v-12.444c-0.001-0.055-0.003-0.122-0.009-0.204-0.191-4.442-3.868-7.974-8.347-7.974-4.447 0-8.108 3.483-8.344 7.905-0.007 0.071-0.012 0.172-0.012 0.273 0 1.767 1.433 3.2 3.2 3.2s3.2-1.433 3.2-3.2c0-1.258 0.876-2.133 2.133-2.133 0.939 0 1.778 0.919 1.778 2.133v0z"></path>
<path fill="none" stroke="#fbfbfb" stroke-width="1.0667" stroke-miterlimit="4" stroke-linecap="round" stroke-linejoin="miter" d="M12.078 8.020c-0.231 0.152-0.45 0.322-0.654 0.506-0.381 0.343-0.714 0.739-0.987 1.176"></path>
<path fill="none" stroke="#fff" stroke-width="1.0667" stroke-miterlimit="4" stroke-linecap="round" stroke-linejoin="miter" d="M9.778 12.089v0.356"></path>
</svg>
