<?xml version="1.0" encoding="utf-8"?>
<!-- Generated by IcoMoon.io -->
<!DOCTYPE svg PUBLIC "-//W3C//DTD SVG 1.1//EN" "http://www.w3.org/Graphics/SVG/1.1/DTD/svg11.dtd">
<svg version="1.1" xmlns="http://www.w3.org/2000/svg" xmlns:xlink="http://www.w3.org/1999/xlink" width="32" height="32" viewBox="0 0 32 32">
<path fill="#f4bb5f" d="M14.222 14.222h8.178c0.785 0 1.422 0.637 1.422 1.422v11.378c0 0.785-0.637 1.422-1.422 1.422h-8.178c-0.785 0-1.422-0.637-1.422-1.422v-11.378c0-0.785 0.637-1.422 1.422-1.422z"></path>
<path fill="none" stroke="#2b2d2b" stroke-width="1.4222" stroke-miterlimit="4" stroke-linecap="butt" stroke-linejoin="miter" d="M12.089 12.8h8.178c0.785 0 1.422 0.637 1.422 1.422v11.378c0 0.785-0.637 1.422-1.422 1.422h-8.178c-0.785 0-1.422-0.637-1.422-1.422v-11.378c0-0.785 0.637-1.422 1.422-1.422z"></path>
<path fill="#fa5e38" d="M19.556 8.178c0 1.178-0.955 2.133-2.133 2.133s-2.133-0.955-2.133-2.133c0-0.366 0.092-0.711 0.255-1.012l1.522-2.639c0.196-0.338 0.516-0.341 0.712-0.002l1.55 2.693c0.146 0.288 0.228 0.614 0.228 0.96z"></path>
<path fill="none" stroke="#2b2d2b" stroke-width="1.4222" stroke-miterlimit="4" stroke-linecap="round" stroke-linejoin="round" d="M17.745 6.95c0.245 0.347 0.389 0.771 0.389 1.228 0 1.178-0.955 2.133-2.133 2.133s-2.133-0.955-2.133-2.133c0-0.329 0.075-0.641 0.208-0.92h-0.003l0.022-0.038c0.036-0.072 0.076-0.141 0.12-0.208l1.787-3.101 1.745 3.039z"></path>
<path fill="none" stroke="#fff" stroke-width="1.0667" stroke-miterlimit="4" stroke-linecap="round" stroke-linejoin="round" d="M19.022 22.044v1.778"></path>
<path fill="none" stroke="#fff" stroke-width="1.0667" stroke-miterlimit="4" stroke-linecap="round" stroke-linejoin="round" d="M19.022 18.844v0.711"></path>
</svg>
