<?xml version="1.0" encoding="utf-8"?>
<!-- Generated by IcoMoon.io -->
<!DOCTYPE svg PUBLIC "-//W3C//DTD SVG 1.1//EN" "http://www.w3.org/Graphics/SVG/1.1/DTD/svg11.dtd">
<svg version="1.1" xmlns="http://www.w3.org/2000/svg" xmlns:xlink="http://www.w3.org/1999/xlink" width="32" height="32" viewBox="0 0 32 32">
<path fill="#fff" d="M18.489 12.444c0-1.972-1.444-3.556-3.2-3.556-2.043 0-3.556 1.512-3.556 3.556 0 0.982-0.796 1.778-1.778 1.778s-1.778-0.796-1.778-1.778c0-0.057 0.003-0.113 0.008-0.169 0.197-3.697 3.236-6.587 6.925-6.587 3.716 0 6.768 2.93 6.927 6.63 0.005 0.072 0.006 0.116 0.007 0.137l-0 12.433c0 0.982-0.796 1.778-1.778 1.778s-1.778-0.796-1.778-1.778v-12.444zM17.067 12.444v12.444c0 1.767 1.433 3.2 3.2 3.2s3.2-1.433 3.2-3.2v-12.444c-0.001-0.055-0.003-0.122-0.009-0.204-0.191-4.442-3.868-7.974-8.347-7.974-4.447 0-8.108 3.483-8.344 7.905-0.007 0.071-0.012 0.172-0.012 0.273 0 1.767 1.433 3.2 3.2 3.2s3.2-1.433 3.2-3.2c0-1.258 0.876-2.133 2.133-2.133 0.939 0 1.778 0.919 1.778 2.133v0z"></path>
</svg>
