<?xml version="1.0" encoding="utf-8"?>
<!-- Generated by IcoMoon.io -->
<!DOCTYPE svg PUBLIC "-//W3C//DTD SVG 1.1//EN" "http://www.w3.org/Graphics/SVG/1.1/DTD/svg11.dtd">
<svg version="1.1" xmlns="http://www.w3.org/2000/svg" xmlns:xlink="http://www.w3.org/1999/xlink" width="32" height="32" viewBox="0 0 32 32">
<path fill="#2b2d2b" d="M9.956 7.362v-0.962c0-0.393 0.318-0.711 0.711-0.711s0.711 0.318 0.711 0.711v2.74c0 0.393-0.318 0.711-0.711 0.711s-0.711-0.318-0.711-0.711v-0.356h-4.162c-0.018 0-0.035-0.001-0.053-0.002-0.017 0.001-0.035 0.002-0.053 0.002-0.393 0-0.711-0.318-0.711-0.711v-2.74c0-0.393 0.318-0.711 0.711-0.711s0.711 0.318 0.711 0.711v2.029h1.067v-2.029c0-0.393 0.318-0.711 0.711-0.711s0.711 0.318 0.711 0.711v2.029h1.067z"></path>
<path fill="#2b2d2b" d="M21.938 7.36v-0.962c0-0.393-0.318-0.711-0.711-0.711s-0.711 0.318-0.711 0.711v2.74c0 0.393 0.318 0.711 0.711 0.711s0.711-0.318 0.711-0.711v-0.356h4.162c0.018 0 0.035-0.001 0.052-0.002 0.017 0.001 0.035 0.002 0.052 0.002 0.393 0 0.711-0.318 0.711-0.711v-2.74c0-0.393-0.318-0.711-0.711-0.711s-0.711 0.318-0.711 0.711v2.029h-1.067v-2.029c0-0.393-0.318-0.711-0.711-0.711s-0.711 0.318-0.711 0.711v2.029h-1.067z"></path>
<path fill="#d79d68" d="M12.089 12.267v8.146c0 3.063 2.546 5.542 5.689 5.542s5.689-2.481 5.689-5.542v-8.146c0-1.080-0.899-1.956-2.008-1.956h-7.363c-1.11 0-2.008 0.876-2.008 1.956v0z"></path>
<path fill="#2b2d2b" d="M11.378 13.156c0-0.394 0.318-0.712 0.711-0.712h7.823c0.392 0 0.711 0.319 0.711 0.712v8.887c0 2.554-2.069 4.624-4.622 4.624-2.554 0-4.622-2.068-4.622-4.624v-8.887zM9.956 13.156v8.887c0 3.342 2.705 6.046 6.044 6.046s6.044-2.707 6.044-6.046v-8.887c0-1.178-0.955-2.134-2.133-2.134h-7.823c-1.179 0-2.133 0.955-2.133 2.134v0z"></path>
<path fill="#2b2d2b" d="M15.289 18.667c0 0.687-0.557 1.244-1.244 1.244s-1.244-0.557-1.244-1.244c0-0.687 0.557-1.244 1.244-1.244s1.244 0.557 1.244 1.244z"></path>
<path fill="#ab1313" d="M17.422 22.756c0 0.785-0.637 1.422-1.422 1.422s-1.422-0.637-1.422-1.422c0-0.785 0.637-1.422 1.422-1.422s1.422 0.637 1.422 1.422z"></path>
<path fill="#2b2d2b" d="M19.2 18.667c0 0.687-0.557 1.244-1.244 1.244s-1.244-0.557-1.244-1.244c0-0.687 0.557-1.244 1.244-1.244s1.244 0.557 1.244 1.244z"></path>
<path fill="none" stroke="#fff" stroke-width="1.0667" stroke-miterlimit="4" stroke-linecap="round" stroke-linejoin="round" d="M15.644 14.044h-1.422"></path>
<path fill="none" stroke="#fff" stroke-width="1.0667" stroke-miterlimit="4" stroke-linecap="round" stroke-linejoin="round" d="M18.844 14.044h-0.356"></path>
</svg>
