<?xml version="1.0" encoding="utf-8"?>
<!-- Generated by IcoMoon.io -->
<!DOCTYPE svg PUBLIC "-//W3C//DTD SVG 1.1//EN" "http://www.w3.org/Graphics/SVG/1.1/DTD/svg11.dtd">
<svg version="1.1" xmlns="http://www.w3.org/2000/svg" xmlns:xlink="http://www.w3.org/1999/xlink" width="32" height="32" viewBox="0 0 32 32">
<path fill="#fff" d="M7.467 10.667c0 0.197-0.159 0.356-0.353 0.356h18.484c-0.196 0-0.353-0.157-0.353-0.356v5.333c0-0.197 0.159-0.356 0.353-0.356h-18.484c0.196 0 0.353 0.157 0.353 0.356v-5.333zM6.044 10.667v5.333c0 0.588 0.48 1.067 1.069 1.067h18.484c0.589 0 1.069-0.476 1.069-1.067v-5.333c0-0.588-0.48-1.067-1.069-1.067h-18.484c-0.589 0-1.069 0.476-1.069 1.067v0z"></path>
<path fill="#fff" d="M16.567 9.973c-0.001-0.032-0.003-0.087-0.006-0.163-0.006-0.124-0.014-0.262-0.025-0.41-0.031-0.425-0.080-0.851-0.151-1.253-0.155-0.88-0.382-1.53-0.781-1.929-0.972-0.972-2.548-0.972-3.52 0s-0.972 2.548 0 3.52c0.398 0.398 1.048 0.626 1.929 0.781 0.402 0.071 0.828 0.119 1.253 0.151 0.148 0.011 0.286 0.019 0.41 0.025 0.076 0.003 0.131 0.005 0.163 0.006l0.745 0.017-0.017-0.745zM15.146 10.006l0.727-0.727c-0.022-0.001-0.067-0.002-0.132-0.005-0.111-0.005-0.235-0.012-0.369-0.022-0.381-0.028-0.762-0.072-1.112-0.133-0.605-0.106-1.043-0.26-1.169-0.386-0.417-0.417-0.417-1.092 0-1.508s1.092-0.417 1.508 0c0.126 0.126 0.28 0.564 0.386 1.169 0.061 0.35 0.105 0.731 0.133 1.112 0.010 0.134 0.017 0.258 0.022 0.369 0.003 0.065 0.004 0.11 0.005 0.132v0z"></path>
<path fill="#fff" d="M17.596 10.156c0.001-0.030 0.003-0.091 0.007-0.177 0.007-0.147 0.017-0.311 0.031-0.488 0.039-0.504 0.098-1.008 0.181-1.473 0.148-0.831 0.362-1.435 0.569-1.642 0.631-0.631 1.648-0.634 2.272-0.010s0.621 1.642-0.010 2.272c-0.207 0.207-0.811 0.421-1.642 0.569-0.465 0.083-0.968 0.142-1.473 0.181-0.177 0.014-0.341 0.024-0.488 0.031-0.087 0.004-0.147 0.006-0.177 0.007l0.73 0.73zM16.174 10.118l-0.020 0.749 0.749-0.020c0.040-0.001 0.111-0.004 0.208-0.008 0.16-0.008 0.338-0.019 0.529-0.033 0.548-0.042 1.096-0.107 1.613-0.199 1.105-0.197 1.92-0.485 2.398-0.963 1.185-1.185 1.191-3.103 0.010-4.284s-3.099-1.175-4.284 0.010c-0.478 0.478-0.766 1.293-0.963 2.398-0.092 0.517-0.157 1.065-0.199 1.613-0.015 0.191-0.026 0.369-0.033 0.529-0.005 0.097-0.007 0.168-0.008 0.208v0z"></path>
<path fill="#fff" d="M7.467 25.602c0 0.589 0.482 1.064 1.068 1.064h15.642c0.588 0 1.068-0.475 1.068-1.064v-9.958h-17.778v9.958zM8.889 25.602v-9.247l-0.711 0.711h16.356l-0.711-0.711v9.247c0-0.2 0.16-0.358 0.354-0.358h-15.642c0.195 0 0.354 0.157 0.354 0.358v0z"></path>
</svg>
