<?xml version="1.0" encoding="utf-8"?>
<!-- Generated by IcoMoon.io -->
<!DOCTYPE svg PUBLIC "-//W3C//DTD SVG 1.1//EN" "http://www.w3.org/Graphics/SVG/1.1/DTD/svg11.dtd">
<svg version="1.1" xmlns="http://www.w3.org/2000/svg" xmlns:xlink="http://www.w3.org/1999/xlink" width="32" height="32" viewBox="0 0 32 32">
<path fill="#55d1bf" d="M11.378 13.867h14.578c0.589 0 1.067 0.478 1.067 1.067v12.444c0 0.589-0.478 1.067-1.067 1.067h-14.578c-0.589 0-1.067-0.478-1.067-1.067v-12.444c0-0.589 0.478-1.067 1.067-1.067z"></path>
<path fill="#55d1bf" d="M8.889 10.311h18.49c0.588 0 1.065 0.478 1.065 1.070v5.327c0 0.591-0.479 1.070-1.070 1.070h-14.288c-0.648 0-1.297-0.711-1.945-0.711h-2.252v-6.756z"></path>
<path fill="none" stroke="#2b2d2b" stroke-width="1.4222" stroke-miterlimit="4" stroke-linecap="butt" stroke-linejoin="miter" d="M7.111 10.311h18.489c0.196 0 0.356 0.159 0.356 0.356v5.333c0 0.196-0.159 0.356-0.356 0.356h-18.489c-0.196 0-0.356-0.159-0.356-0.356v-5.333c0-0.196 0.159-0.356 0.356-0.356z"></path>
<path fill="none" stroke="#2b2d2b" stroke-width="1.4222" stroke-miterlimit="4" stroke-linecap="butt" stroke-linejoin="miter" d="M15.903 9.859c0 0-0.060-2.574-0.754-3.268s-1.82-0.694-2.514 0c-0.694 0.694-0.694 1.82 0 2.514s3.268 0.754 3.268 0.754z"></path>
<path fill="none" stroke="#2b2d2b" stroke-width="1.4222" stroke-miterlimit="4" stroke-linecap="butt" stroke-linejoin="miter" d="M16.923 10.175c0 0 0.088-3.357 0.996-4.264s2.376-0.912 3.278-0.010c0.903 0.903 0.898 2.37-0.010 3.278s-4.264 0.996-4.264 0.996z"></path>
<path fill="none" stroke="#2b2d2b" stroke-width="1.4222" stroke-miterlimit="4" stroke-linecap="butt" stroke-linejoin="miter" d="M8.533 25.956h15.644c0.196 0 0.356-0.159 0.356-0.356v-8.889c0-0.196-0.159-0.356-0.356-0.356h-15.644c-0.196 0-0.356 0.159-0.356 0.356v8.889c0 0.196 0.159 0.356 0.356 0.356z"></path>
<path fill="none" stroke="#fff" stroke-width="1.0667" stroke-miterlimit="4" stroke-linecap="round" stroke-linejoin="round" d="M21.867 21.689v1.778"></path>
<path fill="none" stroke="#fff" stroke-width="1.0667" stroke-miterlimit="4" stroke-linecap="round" stroke-linejoin="round" d="M21.867 18.844v0.356"></path>
</svg>
