<?xml version="1.0" encoding="utf-8"?>
<!-- Generated by IcoMoon.io -->
<!DOCTYPE svg PUBLIC "-//W3C//DTD SVG 1.1//EN" "http://www.w3.org/Graphics/SVG/1.1/DTD/svg11.dtd">
<svg version="1.1" xmlns="http://www.w3.org/2000/svg" xmlns:xlink="http://www.w3.org/1999/xlink" width="32" height="32" viewBox="0 0 32 32">
<path fill="none" stroke="#fff" stroke-width="1.4222" stroke-miterlimit="4" stroke-linecap="butt" stroke-linejoin="miter" d="M20.329 22.756c0.945-0.78 1.591-1.92 1.689-3.191l0.533-6.911c0.282-3.651-2.421-7.066-6.037-7.633l-1.112-0.175c-3.617-0.567-6.332 1.933-6.066 5.585l0.289 3.96-0.743-0.244c-0.312-0.179-0.674-0.281-1.059-0.281-1.178 0-2.133 0.955-2.133 2.133 0 0.818 0.46 1.529 1.136 1.886l3.289 2.4c0.216 0.887 0.701 1.68 1.357 2.29l-0.031 0.21c0.015-0.003 0.031-0.006 0.047-0.009 0.011-0.049 0.022-0.102 0.032-0.157 0.052 0.047 0.105 0.093 0.158 0.137 0.019-0.001 0.037-0.001 0.056-0.001h8.597z"></path>
<path fill="none" stroke="#fff" stroke-width="1.4222" stroke-miterlimit="4" stroke-linecap="butt" stroke-linejoin="miter" d="M11.733 22.756h8.889c0.785 0 1.422 0.637 1.422 1.422v1.067c0 0.785-0.637 1.422-1.422 1.422h-8.889c-0.785 0-1.422-0.637-1.422-1.422v-1.067c0-0.785 0.637-1.422 1.422-1.422z"></path>
</svg>
