<?xml version="1.0" encoding="utf-8"?>
<!-- Generated by IcoMoon.io -->
<!DOCTYPE svg PUBLIC "-//W3C//DTD SVG 1.1//EN" "http://www.w3.org/Graphics/SVG/1.1/DTD/svg11.dtd">
<svg version="1.1" xmlns="http://www.w3.org/2000/svg" xmlns:xlink="http://www.w3.org/1999/xlink" width="32" height="32" viewBox="0 0 32 32">
<path fill="#758dea" d="M8.269 19.909c-0.688-0.365-1.157-1.088-1.157-1.922 0-1.2 0.973-2.173 2.173-2.173 0.393 0 0.761 0.104 1.079 0.286l0.756 0.248-0.294-4.034c-0.271-3.72 2.495-6.267 6.179-5.689l1.133 0.178c3.683 0.578 6.437 4.057 6.15 7.775l-0.55 7.12c-0.181 2.351-2.236 4.256-4.595 4.256h-3.057c-1.148 0-2.223-0.453-3.044-1.189-0.057 0.297-0.13 0.512-0.13 0.512l0.083-0.554c-0.683-0.629-1.183-1.456-1.391-2.381-1.216-0.887-2.652-1.935-3.336-2.435z"></path>
<path fill="none" stroke="#000" stroke-width="1.4222" stroke-miterlimit="4" stroke-linecap="butt" stroke-linejoin="miter" d="M6.825 17.886c-0.676-0.358-1.136-1.068-1.136-1.886 0-1.178 0.955-2.133 2.133-2.133 0.386 0 0.747 0.102 1.059 0.281l0.743 0.244-0.289-3.96c-0.266-3.652 2.449-6.152 6.066-5.585l1.112 0.175c3.616 0.567 6.319 3.982 6.037 7.633l-0.533 6.911c-0.181 2.351-2.239 4.257-4.598 4.257h-2.84c-1.157 0-2.239-0.458-3.062-1.203-0.057 0.31-0.134 0.538-0.134 0.538l0.087-0.581c-0.656-0.609-1.141-1.403-1.357-2.29l-3.289-2.4z"></path>
<path fill="#edf9ff" stroke="#000" stroke-width="1.4222" stroke-miterlimit="4" stroke-linecap="butt" stroke-linejoin="miter" d="M11.733 22.756h8.889c0.785 0 1.422 0.637 1.422 1.422v1.067c0 0.785-0.637 1.422-1.422 1.422h-8.889c-0.785 0-1.422-0.637-1.422-1.422v-1.067c0-0.785 0.637-1.422 1.422-1.422z"></path>
</svg>
