<?xml version="1.0" encoding="utf-8"?>
<!-- Generated by IcoMoon.io -->
<!DOCTYPE svg PUBLIC "-//W3C//DTD SVG 1.1//EN" "http://www.w3.org/Graphics/SVG/1.1/DTD/svg11.dtd">
<svg version="1.1" xmlns="http://www.w3.org/2000/svg" xmlns:xlink="http://www.w3.org/1999/xlink" width="32" height="32" viewBox="0 0 32 32">
<path fill="#fff" d="M14.933 4.976c0-0.587 0.479-1.065 1.067-1.065s1.067 0.479 1.067 1.065v1.782c0 0.587-0.479 1.065-1.067 1.065s-1.067-0.479-1.067-1.065v-1.782zM13.511 4.976v1.782c0 1.371 1.115 2.487 2.489 2.487s2.489-1.114 2.489-2.487v-1.782c0-1.371-1.115-2.487-2.489-2.487s-2.489 1.114-2.489 2.487v0zM14.933 25.243c0-0.587 0.479-1.065 1.067-1.065s1.067 0.479 1.067 1.065v1.782c0 0.587-0.479 1.065-1.067 1.065s-1.067-0.479-1.067-1.065v-1.782zM13.511 25.243v1.782c0 1.371 1.115 2.487 2.489 2.487s2.489-1.114 2.489-2.487v-1.782c0-1.371-1.115-2.487-2.489-2.487s-2.489 1.114-2.489 2.487v0z"></path>
<path fill="#fff" d="M15.33 18.634c-0.212-0.482-0.753-0.793-1.276-0.737l-1.299 0.141c-0.174 0.019-0.304 0.011-0.381-0.014-0.013-0.004 0.008 0.011 0.031 0.051s0.026 0.065 0.029 0.053c0.018-0.079 0.075-0.196 0.179-0.337l0.772-1.054c0.311-0.425 0.31-1.049 0-1.473l-0.772-1.054c-0.104-0.141-0.161-0.258-0.179-0.337-0.003-0.013-0.006 0.012-0.028 0.052s-0.044 0.055-0.031 0.051c0.077-0.024 0.207-0.033 0.382-0.014l1.299 0.141c0.523 0.057 1.064-0.256 1.276-0.737l0.527-1.196c0.071-0.16 0.143-0.269 0.202-0.324 0.010-0.009-0.014 0.001-0.059 0.001s-0.070-0.010-0.060-0.002c0.059 0.055 0.132 0.163 0.203 0.324l0.527 1.196c0.212 0.482 0.753 0.793 1.276 0.737l1.299-0.141c0.174-0.019 0.304-0.011 0.381 0.014 0.013 0.004-0.008-0.011-0.031-0.051s-0.026-0.065-0.029-0.053c-0.018 0.079-0.075 0.196-0.179 0.337l-0.772 1.054c-0.311 0.425-0.311 1.049 0 1.473l0.772 1.054c0.104 0.141 0.161 0.258 0.179 0.337 0.003 0.013 0.006-0.012 0.028-0.052s0.044-0.055 0.031-0.051c-0.077 0.024-0.207 0.033-0.382 0.014l-1.299-0.141c-0.523-0.057-1.064 0.256-1.276 0.737l-0.527 1.196c-0.071 0.16-0.143 0.269-0.202 0.324-0.010 0.009 0.014-0.001 0.059-0.001s0.070 0.010 0.060 0.002c-0.059-0.055-0.132-0.163-0.203-0.324l-0.527-1.196zM14.028 19.208l0.527 1.196c0.689 1.562 2.201 1.56 2.889 0l0.527-1.196c-0.038 0.086-0.086 0.114-0.179 0.103l1.299 0.141c1.697 0.184 2.452-1.126 1.444-2.502l-0.772-1.054c0.055 0.076 0.055 0.131 0 0.207l0.772-1.054c1.008-1.377 0.251-2.686-1.444-2.502l-1.299 0.141c0.093-0.010 0.141 0.018 0.179 0.103l-0.527-1.196c-0.689-1.562-2.201-1.56-2.889 0l-0.527 1.196c0.038-0.086 0.086-0.114 0.179-0.103l-1.299-0.141c-1.697-0.184-2.452 1.126-1.444 2.502l0.772 1.054c-0.055-0.076-0.055-0.131 0-0.207l-0.772 1.054c-1.008 1.377-0.251 2.686 1.444 2.502l1.299-0.141c-0.093 0.010-0.141-0.018-0.179-0.103v0z"></path>
<path fill="#fff" d="M22.756 7.736c0.001-0.001-0.001-0.001-0 0l1.509 1.509c0.001 0.001 0.001-0.001 0-0l-1.509 1.509c-0.001 0.001 0.001 0.001 0 0l-1.509-1.509c-0.001-0.001-0.001 0.001 0 0l1.509-1.509zM21.75 6.73l-1.509 1.509c-0.557 0.557-0.556 1.455 0 2.011l1.509 1.509c0.557 0.557 1.455 0.556 2.011 0l1.509-1.509c0.557-0.557 0.556-1.455 0-2.011l-1.509-1.509c-0.557-0.557-1.455-0.556-2.011 0v0z"></path>
<path fill="#fff" d="M10.25 6.73c-0.556-0.556-1.454-0.557-2.011 0l-1.509 1.509c-0.556 0.556-0.557 1.454 0 2.011l1.509 1.509c0.556 0.556 1.454 0.557 2.011 0l1.509-1.509c0.556-0.556 0.557-1.454 0-2.011l-1.509-1.509zM9.244 7.736l1.509 1.509c0.001 0.001 0.001-0.001 0-0l-1.509 1.509c-0.001 0.001 0.001 0.001 0 0l-1.509-1.509c-0.001-0.001-0.001 0.001 0 0l1.509-1.509c0.001-0.001-0.001-0.001-0 0v0z"></path>
<path fill="#fff" d="M22.756 21.247c0.001-0.001-0.001-0.001-0 0l1.509 1.509c0.001 0.001 0.001-0.001 0-0l-1.509 1.509c-0.001 0.001 0.001 0.001 0 0l-1.509-1.509c-0.001-0.001-0.001 0.001 0 0l1.509-1.509zM21.75 20.241l-1.509 1.509c-0.557 0.557-0.556 1.455 0 2.011l1.509 1.509c0.557 0.557 1.455 0.556 2.011 0l1.509-1.509c0.557-0.557 0.556-1.455 0-2.011l-1.509-1.509c-0.557-0.557-1.455-0.556-2.011 0v0z"></path>
<path fill="#fff" d="M10.25 20.241c-0.556-0.556-1.454-0.557-2.011 0l-1.509 1.509c-0.556 0.556-0.557 1.454 0 2.011l1.509 1.509c0.556 0.556 1.454 0.557 2.011 0l1.509-1.509c0.556-0.556 0.557-1.454 0-2.011l-1.509-1.509zM9.244 21.247l1.509 1.509c0.001 0.001 0.001-0.001 0-0l-1.509 1.509c-0.001 0.001 0.001 0.001 0 0l-1.509-1.509c-0.001-0.001-0.001 0.001 0 0l1.509-1.509c0.001-0.001-0.001-0.001-0 0v0z"></path>
<path fill="#fff" d="M27.024 14.933c0.587 0 1.065 0.479 1.065 1.067s-0.479 1.067-1.065 1.067h-1.782c-0.587 0-1.065-0.479-1.065-1.067s0.479-1.067 1.065-1.067h1.782zM27.024 13.511h-1.782c-1.371 0-2.487 1.115-2.487 2.489s1.114 2.489 2.487 2.489h1.782c1.371 0 2.487-1.115 2.487-2.489s-1.114-2.489-2.487-2.489v0zM6.757 14.933c0.587 0 1.065 0.479 1.065 1.067s-0.479 1.067-1.065 1.067h-1.782c-0.587 0-1.065-0.479-1.065-1.067s0.479-1.067 1.065-1.067h1.782zM6.757 13.511h-1.782c-1.371 0-2.487 1.115-2.487 2.489s1.114 2.489 2.487 2.489h1.782c1.371 0 2.487-1.115 2.487-2.489s-1.114-2.489-2.487-2.489v0z"></path>
</svg>
