<?xml version="1.0" encoding="utf-8"?>
<!-- Generated by IcoMoon.io -->
<!DOCTYPE svg PUBLIC "-//W3C//DTD SVG 1.1//EN" "http://www.w3.org/Graphics/SVG/1.1/DTD/svg11.dtd">
<svg version="1.1" xmlns="http://www.w3.org/2000/svg" xmlns:xlink="http://www.w3.org/1999/xlink" width="32" height="32" viewBox="0 0 32 32">
<path fill="none" stroke="#fff" stroke-width="1.4222" stroke-miterlimit="4" stroke-linecap="butt" stroke-linejoin="miter" d="M23.173 17.547c0.409 0.365 0.948 0.586 1.538 0.586 1.276 0 2.311-1.035 2.311-2.311s-1.035-2.311-2.311-2.311"></path>
<path fill="none" stroke="#fff" stroke-width="1.4222" stroke-miterlimit="4" stroke-linecap="butt" stroke-linejoin="miter" d="M8.86 18.192c-0.213-0.693-0.327-1.429-0.327-2.192 0-0.39 0.030-0.745 0.088-1.067h14.758c0.058 0.322 0.088 0.677 0.088 1.067 0 0.549-0.059 1.084-0.172 1.599"></path>
<path fill="#fff" d="M14.044 17.067c0.687 0 1.244-0.557 1.244-1.244s-0.557-1.244-1.244-1.244c-0.687 0-1.244 0.557-1.244 1.244s0.557 1.244 1.244 1.244zM17.956 17.067c0.687 0 1.244-0.557 1.244-1.244s-0.557-1.244-1.244-1.244c-0.687 0-1.244 0.557-1.244 1.244s0.557 1.244 1.244 1.244z"></path>
<path fill="none" stroke="#fff" stroke-width="1.4222" stroke-miterlimit="4" stroke-linecap="butt" stroke-linejoin="miter" d="M23.111 10.667c0-3.927-3.184-7.111-7.111-7.111s-7.111 3.184-7.111 7.111"></path>
<path fill="none" stroke="#fff" stroke-width="1.4222" stroke-miterlimit="4" stroke-linecap="butt" stroke-linejoin="miter" d="M7.467 10.667h17.067c0.393 0 0.711 0.318 0.711 0.711v2.844c0 0.393-0.318 0.711-0.711 0.711h-17.067c-0.393 0-0.711-0.318-0.711-0.711v-2.844c0-0.393 0.318-0.711 0.711-0.711z"></path>
<path fill="none" stroke="#fff" stroke-width="1.4222" stroke-miterlimit="4" stroke-linecap="butt" stroke-linejoin="miter" d="M13.619 19.217c-2.262-0.516-4.73-1.439-4.73-1.439v4.8c0 2.652 2.149 4.8 4.8 4.8h4.622c2.648 0 4.8-2.149 4.8-4.8v-4.8c0 0-2.464 0.926-4.731 1.442-0.312 1.018-1.26 1.758-2.38 1.758s-2.069-0.741-2.381-1.761z"></path>
</svg>
