<?xml version="1.0" encoding="utf-8"?>
<!-- Generated by IcoMoon.io -->
<!DOCTYPE svg PUBLIC "-//W3C//DTD SVG 1.1//EN" "http://www.w3.org/Graphics/SVG/1.1/DTD/svg11.dtd">
<svg version="1.1" xmlns="http://www.w3.org/2000/svg" xmlns:xlink="http://www.w3.org/1999/xlink" width="32" height="32" viewBox="0 0 32 32">
<path fill="#52b4ff" d="M15.644 6.043c0-0.981 0.796-1.776 1.778-1.776h0.355c0.982 0 1.778 0.798 1.778 1.776v1.782c0 0.981-0.796 1.776-1.778 1.776h-0.355c-0.982 0-1.778-0.798-1.778-1.776v-1.782zM15.644 26.309c0-0.981 0.796-1.776 1.778-1.776h0.355c0.982 0 1.778 0.798 1.778 1.776v1.782c0 0.981-0.796 1.776-1.778 1.776h-0.355c-0.982 0-1.778-0.798-1.778-1.776v-1.782z"></path>
<path fill="none" stroke="#2b2d2b" stroke-width="1.4222" stroke-miterlimit="4" stroke-linecap="butt" stroke-linejoin="miter" d="M14.222 4.976c0-0.981 0.798-1.776 1.778-1.776v0c0.982 0 1.778 0.798 1.778 1.776v1.782c0 0.981-0.798 1.776-1.778 1.776v0c-0.982 0-1.778-0.798-1.778-1.776v-1.782zM14.222 25.243c0-0.981 0.798-1.776 1.778-1.776v0c0.982 0 1.778 0.798 1.778 1.776v1.782c0 0.981-0.798 1.776-1.778 1.776v0c-0.982 0-1.778-0.798-1.778-1.776v-1.782z"></path>
<path fill="#52b4ff" d="M15.617 19.567l-1.425 0.155c-1.185 0.129-1.576-0.544-0.87-1.508l0.846-1.156c0.14-0.192 0.14-0.504 0-0.694l-1.558-1.512c-0.704-0.961-0.317-1.637 0.87-1.508l2.136 0.51c0.236 0.026 0.506-0.131 0.601-0.347l0.578-1.311c0.481-1.090 1.259-1.093 1.741 0l0.578 1.311c0.096 0.217 0.366 0.373 0.601 0.347l1.425-0.155c1.185-0.129 1.576 0.544 0.87 1.508l-0.846 1.156c-0.14 0.192-0.14 0.504 0 0.694l0.846 1.156c0.704 0.961 0.317 1.637-0.87 1.508l-1.425-0.155c-0.236-0.026-0.506 0.131-0.601 0.347l-0.578 1.311c-0.481 1.090-1.259 1.093-1.741 0l-0.578-1.311c-0.096-0.217-0.366-0.373-0.601-0.347z"></path>
<path fill="none" stroke="#2b2d2b" stroke-width="1.4222" stroke-miterlimit="4" stroke-linecap="butt" stroke-linejoin="miter" d="M14.679 18.921c-0.087-0.198-0.334-0.34-0.548-0.317l-1.299 0.141c-1.080 0.117-1.437-0.496-0.794-1.375l0.772-1.054c0.128-0.175 0.127-0.459 0-0.633l-0.772-1.054c-0.642-0.877-0.289-1.492 0.794-1.375l1.299 0.141c0.215 0.023 0.461-0.119 0.548-0.317l0.527-1.196c0.438-0.994 1.148-0.997 1.587 0l0.527 1.196c0.087 0.198 0.334 0.34 0.548 0.317l1.299-0.141c1.080-0.117 1.437 0.496 0.794 1.375l-0.772 1.054c-0.128 0.175-0.127 0.459 0 0.633l0.772 1.054c0.642 0.877 0.289 1.492-0.794 1.375l-1.299-0.141c-0.215-0.023-0.461 0.119-0.548 0.317l-0.527 1.196c-0.438 0.994-1.148 0.997-1.587 0l-0.527-1.196z"></path>
<path fill="none" stroke="#fff" stroke-width="1.0667" stroke-miterlimit="4" stroke-linecap="round" stroke-linejoin="miter" d="M16.796 16.591c-0.195-0.021-0.235 0.091-0.314 0.27"></path>
<path fill="#fff" d="M15.289 15.467c0 0.295-0.239 0.533-0.533 0.533s-0.533-0.239-0.533-0.533c0-0.295 0.239-0.533 0.533-0.533s0.533 0.239 0.533 0.533z"></path>
<path fill="#9fe3fc" stroke="#2b2d2b" stroke-width="1.4222" stroke-miterlimit="4" stroke-linecap="butt" stroke-linejoin="miter" d="M23.258 7.233l1.509 1.509c0.278 0.278 0.278 0.728 0 1.006l-1.509 1.508c-0.278 0.278-0.728 0.278-1.006 0l-1.509-1.508c-0.278-0.278-0.278-0.728 0-1.006l1.509-1.508c0.278-0.278 0.728-0.278 1.006 0z"></path>
<path fill="#9fe3fc" stroke="#2b2d2b" stroke-width="1.4222" stroke-miterlimit="4" stroke-linecap="butt" stroke-linejoin="miter" d="M8.742 7.233l-1.508 1.509c-0.278 0.278-0.278 0.728 0 1.006l1.508 1.508c0.278 0.278 0.728 0.278 1.006 0l1.508-1.508c0.278-0.278 0.278-0.728 0-1.006l-1.508-1.508c-0.278-0.278-0.728-0.278-1.006 0z"></path>
<path fill="#9fe3fc" stroke="#2b2d2b" stroke-width="1.4222" stroke-miterlimit="4" stroke-linecap="butt" stroke-linejoin="miter" d="M23.258 20.744l1.509 1.509c0.278 0.278 0.278 0.728 0 1.006l-1.509 1.509c-0.278 0.278-0.728 0.278-1.006 0l-1.509-1.509c-0.278-0.278-0.278-0.728 0-1.006l1.509-1.509c0.278-0.278 0.728-0.278 1.006 0z"></path>
<path fill="#9fe3fc" stroke="#2b2d2b" stroke-width="1.4222" stroke-miterlimit="4" stroke-linecap="butt" stroke-linejoin="miter" d="M8.742 20.744l-1.508 1.509c-0.278 0.278-0.278 0.728 0 1.006l1.508 1.509c0.278 0.278 0.728 0.278 1.006 0l1.508-1.509c0.278-0.278 0.278-0.728 0-1.006l-1.508-1.509c-0.278-0.278-0.728-0.278-1.006 0z"></path>
<path fill="#52b4ff" d="M28.802 15.289c0.981 0 1.776 0.796 1.776 1.778v0.355c0 0.982-0.798 1.778-1.776 1.778h-1.782c-0.981 0-1.776-0.796-1.776-1.778v-0.355c0-0.982 0.798-1.778 1.776-1.778h1.782zM8.535 15.289c0.981 0 1.776 0.796 1.776 1.778v0.355c0 0.982-0.798 1.778-1.776 1.778h-1.782c-0.981 0-1.776-0.796-1.776-1.778v-0.355c0-0.982 0.798-1.778 1.776-1.778h1.781z"></path>
<path fill="none" stroke="#2b2d2b" stroke-width="1.4222" stroke-miterlimit="4" stroke-linecap="butt" stroke-linejoin="miter" d="M27.024 14.222c0.981 0 1.776 0.798 1.776 1.778v0c0 0.982-0.798 1.778-1.776 1.778h-1.782c-0.981 0-1.776-0.798-1.776-1.778v0c0-0.982 0.798-1.778 1.776-1.778h1.782zM6.757 14.222c0.981 0 1.776 0.798 1.776 1.778v0c0 0.982-0.798 1.778-1.776 1.778h-1.782c-0.981 0-1.776-0.798-1.776-1.778v0c0-0.982 0.798-1.778 1.776-1.778h1.782z"></path>
</svg>
