<?xml version="1.0" encoding="utf-8"?>
<!-- Generated by IcoMoon.io -->
<!DOCTYPE svg PUBLIC "-//W3C//DTD SVG 1.1//EN" "http://www.w3.org/Graphics/SVG/1.1/DTD/svg11.dtd">
<svg version="1.1" xmlns="http://www.w3.org/2000/svg" xmlns:xlink="http://www.w3.org/1999/xlink" width="32" height="32" viewBox="0 0 32 32">
<path fill="#fff" d="M12.398 25.145c0.316-0.442 0.572-0.928 0.761-1.448 1.142-3.137-0.476-6.605-3.613-7.747l-0.486 1.336c2.399 0.873 3.636 3.526 2.763 5.924-0.145 0.399-0.341 0.77-0.582 1.108l1.158 0.826z"></path>
<path fill="none" stroke="#fff" stroke-width="1.4222" stroke-miterlimit="4" stroke-linecap="butt" stroke-linejoin="miter" d="M11.921 10.661l-2.918 8.017c-0.874 2.4 0.336 5.127 2.702 6.092l2.283 0.932 2.397 1.241c2.208 1.143 4.682 0.176 5.531-2.158l0.33-0.907c0.605-1.664-0.188-3.649-1.769-4.441l-1.617-0.809 1.75-4.808"></path>
<path fill="#fff" d="M12.378 6.284c0.201-0.553 0.813-0.838 1.369-0.636l8.683 3.16c0.554 0.202 0.841 0.815 0.64 1.367l-0.73 2.007c-0.201 0.553-0.813 0.838-1.369 0.636l-8.683-3.16c-0.554-0.202-0.841-0.815-0.64-1.367l0.73-2.007zM11.042 5.798l-0.73 2.007c-0.47 1.29 0.198 2.719 1.49 3.19l8.683 3.16c1.293 0.471 2.721-0.194 3.192-1.486l0.73-2.007c0.47-1.29-0.198-2.719-1.49-3.19l-8.683-3.16c-1.293-0.471-2.721 0.194-3.192 1.486v0z"></path>
</svg>
