<?xml version="1.0" encoding="utf-8"?>
<!-- Generated by IcoMoon.io -->
<!DOCTYPE svg PUBLIC "-//W3C//DTD SVG 1.1//EN" "http://www.w3.org/Graphics/SVG/1.1/DTD/svg11.dtd">
<svg version="1.1" xmlns="http://www.w3.org/2000/svg" xmlns:xlink="http://www.w3.org/1999/xlink" width="32" height="32" viewBox="0 0 32 32">
<path fill="#c6e4ec" d="M15.385 19.501c-2.282-0.636-4.718-1.723-4.718-1.723v5.867c0 3.241 2.626 5.867 5.866 5.867h2.845c3.243 0 5.866-2.627 5.866-5.867v-5.867c0 0-2.712 1.216-5.1 1.828-0.325 1.209-1.262 2.083-2.366 2.083-1.136 0-2.095-0.925-2.393-2.188z"></path>
<path fill="#fff" stroke="#2b2d2b" stroke-width="1.4222" stroke-miterlimit="4" stroke-linecap="butt" stroke-linejoin="miter" d="M27.022 15.822c0 1.276-1.035 2.311-2.311 2.311s-2.311-1.035-2.311-2.311c0-1.276 1.035-2.311 2.311-2.311s2.311 1.035 2.311 2.311z"></path>
<path fill="#ebccb8" d="M10.133 14.933l11.378-0.599c1.178-0.062 2.086 0.841 2.027 2.018l0.035-0.704c-0.059 1.176-0.901 2.658-1.899 3.287 0 0-2.622 1.907-5.141 2.398-0.943 0.184-3.739 0.060-3.739 0.060-1.175-0.033-2.207-1.012-2.305-2.187l-0.356-4.273z"></path>
<path fill="none" stroke="#2b2d2b" stroke-width="1.4222" stroke-miterlimit="4" stroke-linecap="butt" stroke-linejoin="miter" d="M16 23.467c4.124 0 7.467-3.343 7.467-7.467s-3.343-4.267-7.467-4.267c-4.124 0-7.467 0.143-7.467 4.267s3.343 7.467 7.467 7.467z"></path>
<path fill="#2b2d2b" d="M15.289 15.822c0 0.687-0.557 1.244-1.244 1.244s-1.244-0.557-1.244-1.244c0-0.687 0.557-1.244 1.244-1.244s1.244 0.557 1.244 1.244z"></path>
<path fill="#2b2d2b" d="M19.2 15.822c0 0.687-0.557 1.244-1.244 1.244s-1.244-0.557-1.244-1.244c0-0.687 0.557-1.244 1.244-1.244s1.244 0.557 1.244 1.244z"></path>
<path fill="#de3f5d" d="M18.133 12.089c3.927 0 7.111 1.438 7.111-2.489s-3.184-7.111-7.111-7.111c-3.927 0-7.111 3.184-7.111 7.111s3.184 2.489 7.111 2.489z"></path>
<path fill="none" stroke="#2b2d2b" stroke-width="1.4222" stroke-miterlimit="4" stroke-linecap="butt" stroke-linejoin="miter" d="M16 13.156c3.927 0 7.111 1.438 7.111-2.489s-3.184-7.111-7.111-7.111c-3.927 0-7.111 3.184-7.111 7.111s3.184 2.489 7.111 2.489z"></path>
<path fill="none" stroke="#fff" stroke-width="1.0667" stroke-miterlimit="4" stroke-linecap="round" stroke-linejoin="miter" d="M20.089 8.533c-0.356-0.711-0.475-0.74-0.894-1.196"></path>
<path fill="none" stroke="#fff" stroke-width="1.0667" stroke-miterlimit="4" stroke-linecap="round" stroke-linejoin="miter" d="M16.711 6.044c-0.711-0.178 0.356 0-0.533-0.178"></path>
<path fill="#fff" stroke="#2b2d2b" stroke-width="1.4222" stroke-miterlimit="4" stroke-linecap="butt" stroke-linejoin="miter" d="M7.467 10.667h17.067c0.393 0 0.711 0.318 0.711 0.711v2.844c0 0.393-0.318 0.711-0.711 0.711h-17.067c-0.393 0-0.711-0.318-0.711-0.711v-2.844c0-0.393 0.318-0.711 0.711-0.711z"></path>
<path fill="#c6e3eb" stroke="#2b2d2b" stroke-width="1.4222" stroke-miterlimit="4" stroke-linecap="butt" stroke-linejoin="miter" d="M13.619 19.217c-2.262-0.516-4.73-1.439-4.73-1.439v4.8c0 2.652 2.149 4.8 4.8 4.8h4.622c2.648 0 4.8-2.149 4.8-4.8v-4.8c0 0-2.464 0.926-4.731 1.442-0.312 1.018-1.26 1.758-2.38 1.758s-2.069-0.741-2.381-1.761z"></path>
</svg>
