<?xml version="1.0" encoding="utf-8"?>
<!-- Generated by IcoMoon.io -->
<!DOCTYPE svg PUBLIC "-//W3C//DTD SVG 1.1//EN" "http://www.w3.org/Graphics/SVG/1.1/DTD/svg11.dtd">
<svg version="1.1" xmlns="http://www.w3.org/2000/svg" xmlns:xlink="http://www.w3.org/1999/xlink" width="32" height="32" viewBox="0 0 32 32">
<path fill="#c3e3fa" d="M26.667 18.489c0 4.713-3.82 8.533-8.533 8.533s-8.533-3.82-8.533-8.533c0-4.713 3.82-8.533 8.533-8.533s8.533 3.82 8.533 8.533z"></path>
<path fill="none" stroke="#2b2d2b" stroke-width="1.4222" stroke-miterlimit="4" stroke-linecap="butt" stroke-linejoin="miter" d="M7.977 16.346c-0.102 0.521-0.155 1.059-0.155 1.609 0 4.615 3.741 8.356 8.356 8.356v0c4.615 0 8.356-3.741 8.356-8.356s-3.741-8.356-8.356-8.356"></path>
<path fill="#2b2d2b" d="M15.467 18.489c0.687 0 1.244-0.557 1.244-1.244s-0.557-1.244-1.244-1.244c-0.687 0-1.244 0.557-1.244 1.244s0.557 1.244 1.244 1.244zM19.378 18.489c0.687 0 1.244-0.557 1.244-1.244s-0.557-1.244-1.244-1.244c-0.687 0-1.244 0.557-1.244 1.244s0.557 1.244 1.244 1.244z"></path>
<path fill="#5b626c" d="M9.532 15.51l-3.334-4.813c-0.335-0.484-0.21-1.144 0.28-1.474l8.549-5.766c0.65-0.438 1.538-0.272 1.987 0.377 0 0 2.050 2.959 3.075 4.439z"></path>
<path fill="#2b2d2b" d="M4.877 17.835l15.328-10.339c0.651-0.439 1.535-0.267 1.974 0.384l-0.795-1.179c0.439 0.651 0.267 1.535-0.384 1.974l-15.328 10.339c-0.651 0.439-1.535 0.267-1.974-0.384l0.795 1.179c-0.439-0.651-0.267-1.535 0.384-1.974z"></path>
<path fill="none" stroke="#2b2d2b" stroke-width="1.4222" stroke-miterlimit="4" stroke-linecap="butt" stroke-linejoin="miter" d="M4.784 9.749l8.254-5.567c0.651-0.439 1.535-0.267 1.974 0.384l2.585 3.832c0.439 0.651 0.267 1.535-0.384 1.974l-8.254 5.567c-0.651 0.439-1.535 0.267-1.974-0.384l-2.585-3.832c-0.439-0.651-0.267-1.535 0.384-1.974z"></path>
<path fill="none" stroke="#fff" stroke-width="1.0667" stroke-miterlimit="4" stroke-linecap="round" stroke-linejoin="miter" d="M13.159 6.775l0.208 0.309M14.306 8.558l0.565 0.754"></path>
<path fill="#f07b25" stroke="#2b2d2b" stroke-width="1.4222" stroke-miterlimit="4" stroke-linecap="butt" stroke-linejoin="miter" d="M16.711 20.179c0-0.719 0.559-1.129 1.245-0.917l3.082 0.955c0.657 0.204 0.651 0.515-0.014 0.695l-3.055 0.827c-0.695 0.188-1.259-0.239-1.259-0.962v-0.597z"></path>
</svg>
