<?xml version="1.0" encoding="utf-8"?>
<!-- Generated by IcoMoon.io -->
<!DOCTYPE svg PUBLIC "-//W3C//DTD SVG 1.1//EN" "http://www.w3.org/Graphics/SVG/1.1/DTD/svg11.dtd">
<svg version="1.1" xmlns="http://www.w3.org/2000/svg" xmlns:xlink="http://www.w3.org/1999/xlink" width="32" height="32" viewBox="0 0 32 32">
<path fill="#de4424" d="M20.672 18.823l2.343-6.438-6.683-2.432c-0.922-0.335-1.943 0.141-2.279 1.064l-2.979 8.184c-0.839 2.306 0.322 4.932 2.595 5.864l2.47 1.012c0.024 0.010 0.048 0.019 0.073 0.028l2.304 1.193c2.208 1.143 4.682 0.176 5.531-2.158l0.33-0.907c0.605-1.664-0.188-3.649-1.769-4.441l-1.937-0.969z"></path>
<path fill="#9ecf55" d="M11.819 24.732c0.275-0.385 0.502-0.812 0.672-1.278 1.007-2.768-0.42-5.828-3.188-6.836l-0.452 4.446z"></path>
<path fill="none" stroke="#2b2d2b" stroke-width="1.4222" stroke-miterlimit="4" stroke-linecap="butt" stroke-linejoin="miter" d="M11.819 24.732c0.275-0.385 0.502-0.812 0.672-1.278 1.007-2.768-0.42-5.828-3.188-6.836"></path>
<path fill="none" stroke="#2b2d2b" stroke-width="1.4222" stroke-miterlimit="4" stroke-linecap="butt" stroke-linejoin="miter" d="M11.921 10.661l-2.918 8.017c-0.874 2.4 0.336 5.127 2.702 6.092l2.283 0.932 2.397 1.241c2.208 1.143 4.682 0.176 5.531-2.158l0.33-0.907c0.605-1.664-0.188-3.649-1.769-4.441l-1.617-0.809 1.75-4.808c0.336-0.922-0.14-1.941-1.062-2.277l-5.347-1.946"></path>
<path fill="none" stroke="#fff" stroke-width="1.0667" stroke-miterlimit="4" stroke-linecap="round" stroke-linejoin="miter" d="M18.85 21.395l-1.518-0.766"></path>
<path fill="#fff" d="M20.626 23.393c-0.101 0.277-0.407 0.419-0.684 0.319s-0.419-0.407-0.319-0.684c0.101-0.277 0.407-0.419 0.684-0.319s0.419 0.407 0.319 0.684z"></path>
<path fill="#9ecf55" d="M16.122 5.335l9.028 3.286c0.923 0.336 1.398 1.356 1.063 2.279l-0.823 2.262c-0.336 0.923-1.356 1.398-2.279 1.063l-9.028-3.286c-0.923-0.336-1.398-1.356-1.063-2.279l0.823-2.262c0.336-0.923 1.356-1.398 2.279-1.063z"></path>
<path fill="none" stroke="#2b2d2b" stroke-width="1.4222" stroke-miterlimit="4" stroke-linecap="butt" stroke-linejoin="miter" d="M13.988 4.979l8.687 3.162c0.923 0.336 1.398 1.356 1.063 2.279l-0.73 2.005c-0.336 0.923-1.356 1.398-2.279 1.063l-8.687-3.162c-0.923-0.336-1.398-1.356-1.063-2.279l0.73-2.005c0.336-0.923 1.356-1.398 2.279-1.063z"></path>
</svg>
