<?xml version="1.0" encoding="utf-8"?>
<!-- Generated by IcoMoon.io -->
<!DOCTYPE svg PUBLIC "-//W3C//DTD SVG 1.1//EN" "http://www.w3.org/Graphics/SVG/1.1/DTD/svg11.dtd">
<svg version="1.1" xmlns="http://www.w3.org/2000/svg" xmlns:xlink="http://www.w3.org/1999/xlink" width="32" height="32" viewBox="0 0 32 32">
<path fill="#c358b7" d="M27.378 17.337c0 4.76-3.881 8.618-8.667 8.618s-8.667-3.859-8.667-8.618c0-4.76 3.88-8.618 8.667-8.618s8.667 3.859 8.667 8.618z"></path>
<path fill="#87b8c0" d="M8.019 8.841l1.691-1.681 1.966 1.788-1.835 1.684-1.821-1.791z"></path>
<path fill="none" stroke="#2b2d2b" stroke-width="1.4222" stroke-miterlimit="4" stroke-linecap="butt" stroke-linejoin="miter" d="M25.528 16.653c0 5.006-4.081 9.064-9.116 9.064s-9.116-4.058-9.116-9.064c0-5.006 4.081-9.064 9.116-9.064s9.116 4.058 9.116 9.064z"></path>
<path fill="none" stroke="#fff" stroke-width="1.0667" stroke-miterlimit="4" stroke-linecap="round" stroke-linejoin="miter" d="M22.24 16.653c0-2.24-1.278-4.183-3.149-5.148"></path>
<path fill="none" stroke="#fff" stroke-width="1.0667" stroke-miterlimit="4" stroke-linecap="round" stroke-linejoin="miter" d="M20.549 20.735c0.373-0.374 0.696-0.799 0.956-1.262"></path>
<path fill="none" stroke="#2b2d2b" stroke-width="1.4222" stroke-miterlimit="4" stroke-linecap="butt" stroke-linejoin="miter" d="M9.095 11.812l-1.862-1.851c-0.128-0.127-0.137-0.324-0.020-0.44l2.325-2.312c0.117-0.116 0.317-0.104 0.442 0.020l1.862 1.851"></path>
<path fill="none" stroke="#2b2d2b" stroke-width="1.4222" stroke-miterlimit="4" stroke-linecap="butt" stroke-linejoin="miter" d="M9.009 7.279c-0.188-0.513-0.683-0.879-1.264-0.879-0.743 0-1.345 0.599-1.345 1.337 0 0.542 0.325 1.009 0.791 1.219 0.169 0.076 0.356 0.118 0.554 0.118"></path>
</svg>
