<?xml version="1.0" encoding="utf-8"?>
<!-- Generated by IcoMoon.io -->
<!DOCTYPE svg PUBLIC "-//W3C//DTD SVG 1.1//EN" "http://www.w3.org/Graphics/SVG/1.1/DTD/svg11.dtd">
<svg version="1.1" xmlns="http://www.w3.org/2000/svg" xmlns:xlink="http://www.w3.org/1999/xlink" width="32" height="32" viewBox="0 0 32 32">
<path fill="#fff" d="M16.412 24.295v0c4.251 0 7.693-3.423 7.693-7.642s-3.443-7.642-7.693-7.642c-4.251 0-7.693 3.423-7.693 7.642s3.443 7.642 7.693 7.642v0zM16.412 25.717v0c-5.034 0-9.116-4.058-9.116-9.064s4.081-9.064 9.116-9.064c5.034 0 9.116 4.058 9.116 9.064s-4.081 9.064-9.116 9.064v0z"></path>
<path fill="#fff" d="M9.597 11.308l-1.862-1.851c0.142 0.141 0.154 0.396-0.020 0.569l2.325-2.312c-0.173 0.172-0.42 0.16-0.56 0.020l1.862 1.851 1.003-1.008-1.862-1.851c-0.393-0.391-1.040-0.423-1.445-0.020l-2.325 2.312c-0.407 0.405-0.377 1.053 0.020 1.448l1.862 1.851 1.003-1.008z"></path>
<path fill="#fff" d="M9.677 7.034c-0.294-0.802-1.062-1.346-1.932-1.346-1.135 0-2.056 0.916-2.056 2.048 0 0.813 0.48 1.539 1.21 1.868 0.264 0.119 0.551 0.181 0.846 0.181v-1.422c-0.092 0-0.181-0.019-0.262-0.056-0.225-0.101-0.372-0.323-0.372-0.571 0-0.345 0.283-0.626 0.634-0.626 0.27 0 0.506 0.168 0.596 0.413l1.335-0.49z"></path>
</svg>
