<?xml version="1.0" encoding="utf-8"?>
<!-- Generated by IcoMoon.io -->
<!DOCTYPE svg PUBLIC "-//W3C//DTD SVG 1.1//EN" "http://www.w3.org/Graphics/SVG/1.1/DTD/svg11.dtd">
<svg version="1.1" xmlns="http://www.w3.org/2000/svg" xmlns:xlink="http://www.w3.org/1999/xlink" width="32" height="32" viewBox="0 0 32 32">
<path fill="#609c60" d="M22.403 20.483c1.319 1.841 2.783 3.678 2.783 3.678 1.882 2.7-0.653 6.062-3.853 4.995 0 0-3.674-0.711-5.333-0.711s-2.668 0.369-2.668 0.369c-3.045 0.454-3.597-2.403-1.715-5.103 0 0 1.171-1.493 2.405-3.225-1.859 0.012-2.447-1.187-1.304-2.728l3.279-4.419c1.17-1.577 3.067-1.578 4.238 0l3.279 4.419c1.103 1.487 0.593 2.654-1.113 2.725z"></path>
<path fill="none" stroke="#000" stroke-width="1.4222" stroke-miterlimit="4" stroke-linecap="butt" stroke-linejoin="miter" d="M19.556 20.267c1.327 1.595 3.022 3.378 3.022 3.378 1.776 2.135 0.947 4.029-1.927 3.678 0 0-3.062-0.441-4.628-0.441s-4.628 0.441-4.628 0.441c-2.872 0.359-3.393-1.9-1.618-4.034 0 0 1.37-1.464 2.667-3.022"></path>
<path fill="none" stroke="#000" stroke-width="1.4222" stroke-miterlimit="4" stroke-linecap="butt" stroke-linejoin="miter" d="M13.885 13.335c1.171-1.578 3.067-1.581 4.24 0l3.299 4.445c1.171 1.578 0.53 2.797-1.432 2.727 0 0-2.286-0.101-3.987-0.101s-3.987 0.101-3.987 0.101c-1.962 0.072-2.605-1.146-1.432-2.727l3.299-4.445z"></path>
<path fill="#f5b100" d="M19.218 9.83c-0.335-0.132-1.796-0.053-1.796-0.053l-1.791 0.448c-0.189 0.047-0.331-0.076-0.317-0.27l0.179-2.497-1.764-2.137c-0.126-0.153-0.091-0.362 0.074-0.464 0 0 1.483-0.94 2.196-1.124 0.182-0.047 0.532 0.529 0.532 0.529l1.107-1.739c0.317-0.498 0.829-0.5 1.147 0l1.107 1.739 1.996 0.515c0.571 0.147 0.732 0.634 0.355 1.091l-1.312 1.59 0.127 2.058c0.036 0.589-0.376 0.892-0.93 0.674 0 0-0.393-0.155-0.911-0.359z"></path>
<path fill="#2b2d2b" d="M14.418 9.482l0.114-1.846-0.179-0.216-1-1.219 1.795-0.463 0.998-1.569 0.998 1.569 0.272 0.070 1.53 0.392-1.185 1.436 0.017 0.28 0.101 1.577-1.733-0.684-0.261 0.103-1.468 0.57zM18.066 11.095c0.662 0.261 1.321-0.213 1.277-0.928l-0.132-2.053 1.318-1.597c0.453-0.549 0.205-1.322-0.488-1.501l-1.994-0.511-1.111-1.745c-0.382-0.6-1.194-0.604-1.578 0l-1.103 1.739-2.002 0.517c-0.689 0.178-0.943 0.949-0.488 1.501l1.313 1.592-0.127 2.059c-0.044 0.71 0.611 1.19 1.277 0.928l1.925-0.759 1.914 0.759z"></path>
</svg>
