<?xml version="1.0" encoding="utf-8"?>
<!-- Generated by IcoMoon.io -->
<!DOCTYPE svg PUBLIC "-//W3C//DTD SVG 1.1//EN" "http://www.w3.org/Graphics/SVG/1.1/DTD/svg11.dtd">
<svg version="1.1" xmlns="http://www.w3.org/2000/svg" xmlns:xlink="http://www.w3.org/1999/xlink" width="32" height="32" viewBox="0 0 32 32">
<path fill="none" stroke="#fff" stroke-width="1.4222" stroke-miterlimit="4" stroke-linecap="butt" stroke-linejoin="miter" d="M19.556 20.267c1.327 1.595 3.022 3.378 3.022 3.378 1.776 2.135 0.947 4.029-1.927 3.678 0 0-3.062-0.441-4.628-0.441s-4.628 0.441-4.628 0.441c-2.872 0.359-3.393-1.9-1.618-4.034 0 0 1.37-1.464 2.667-3.022"></path>
<path fill="none" stroke="#fff" stroke-width="1.4222" stroke-miterlimit="4" stroke-linecap="butt" stroke-linejoin="miter" d="M13.885 13.335c1.171-1.578 3.067-1.581 4.24 0l3.299 4.445c1.171 1.578 0.53 2.797-1.432 2.727 0 0-2.286-0.101-3.987-0.101s-3.987 0.101-3.987 0.101c-1.962 0.072-2.605-1.146-1.432-2.727l3.299-4.445z"></path>
<path fill="#fff" d="M14.418 9.482l0.114-1.846-0.179-0.216-1-1.219 1.795-0.463 0.998-1.569 0.998 1.569 0.272 0.070 1.53 0.392-1.185 1.436 0.017 0.28 0.101 1.577-1.733-0.684-0.261 0.103-1.468 0.57zM18.066 11.095c0.662 0.261 1.321-0.213 1.277-0.928l-0.132-2.053 1.318-1.597c0.453-0.549 0.205-1.322-0.488-1.501l-1.994-0.511-1.111-1.745c-0.382-0.6-1.194-0.604-1.578 0l-1.103 1.739-2.002 0.517c-0.689 0.178-0.943 0.949-0.488 1.501l1.313 1.592-0.127 2.059c-0.044 0.71 0.611 1.19 1.277 0.928l1.925-0.759 1.914 0.759z"></path>
</svg>
