<?xml version="1.0" encoding="UTF-8" standalone="no"?>
<!-- Created with Inkscape (http://www.inkscape.org/) -->

<svg
   xmlns:dc="http://purl.org/dc/elements/1.1/"
   xmlns:cc="http://creativecommons.org/ns#"
   xmlns:rdf="http://www.w3.org/1999/02/22-rdf-syntax-ns#"
   xmlns:svg="http://www.w3.org/2000/svg"
   xmlns="http://www.w3.org/2000/svg"
   xmlns:sodipodi="http://sodipodi.sourceforge.net/DTD/sodipodi-0.dtd"
   xmlns:inkscape="http://www.inkscape.org/namespaces/inkscape"
   width="26.548983mm"
   height="29.334944mm"
   viewBox="0 0 94.071198 103.94271"
   id="svg4267"
   version="1.1"
   inkscape:version="0.91 r13725"
   sodipodi:docname="present.svg">
  <defs
     id="defs4269" />
  <sodipodi:namedview
     id="base"
     pagecolor="#ffffff"
     bordercolor="#666666"
     borderopacity="1.0"
     inkscape:pageopacity="0.0"
     inkscape:pageshadow="2"
     inkscape:zoom="3.959798"
     inkscape:cx="67.445332"
     inkscape:cy="50.281813"
     inkscape:document-units="px"
     inkscape:current-layer="layer1"
     showgrid="false"
     fit-margin-top="0"
     fit-margin-left="0"
     fit-margin-right="0"
     fit-margin-bottom="0"
     inkscape:window-width="1680"
     inkscape:window-height="1002"
     inkscape:window-x="0"
     inkscape:window-y="0"
     inkscape:window-maximized="1" />
  <metadata
     id="metadata4272">
    <rdf:RDF>
      <cc:Work
         rdf:about="">
        <dc:format>image/svg+xml</dc:format>
        <dc:type
           rdf:resource="http://purl.org/dc/dcmitype/StillImage" />
        <dc:title></dc:title>
      </cc:Work>
    </rdf:RDF>
  </metadata>
  <g
     inkscape:label="Layer 1"
     inkscape:groupmode="layer"
     id="layer1"
     transform="translate(-412.96441,-668.9622)">
    <path
       d="m 460.93691,714.77991 -45.4163,0 c -1.4112,0 -2.5562,-1.145 -2.5562,-2.5563 l 0,-22.9162 c 0,-1.4113 1.145,-2.5563 2.5562,-2.5563 l 88.9588,0 c 1.4112,0 2.5562,1.145 2.5562,2.5563 l 0,21.4575 c 0,1.4112 -1.145,2.5562 -2.5562,2.5562 l -1.875,0 c -1.4113,0 -2.5563,-1.145 -2.5563,-2.5562 0,-1.175 0.795,-2.1663 1.875,-2.465 l 0,-16.4363 -83.8462,0 0,17.8038 42.86,0 c 1.4112,0 2.5562,1.145 2.5562,2.5562 0,1.4113 -1.145,2.5563 -2.5562,2.5563"
       style="fill:#1d1d1b;fill-opacity:1;fill-rule:nonzero;stroke:none"
       id="path3447"
       inkscape:connector-curvature="0" />
    <path
       d="m 496.35441,772.90491 -73.125,0 c -1.4113,0 -2.5563,-1.145 -2.5563,-2.5563 l 0,-52.2912 c 0,-1.4113 1.145,-2.5563 2.5563,-2.5563 1.4112,0 2.5562,1.145 2.5562,2.5563 l 0,49.735 68.0125,0 0,-53.0125 -18.9025,0 c -1.4112,0 -2.5562,-1.145 -2.5562,-2.5563 0,-1.4112 1.145,-2.5562 2.5562,-2.5562 l 21.4588,0 c 1.4112,0 2.5562,1.145 2.5562,2.5562 l 0,58.125 c 0,1.4113 -1.145,2.5563 -2.5562,2.5563"
       style="fill:#1d1d1b;fill-opacity:1;fill-rule:nonzero;stroke:none"
       id="path3451"
       inkscape:connector-curvature="0" />
    <path
       d="m 452.81191,724.25141 c -1.22,0 -2.2075,-0.9875 -2.2075,-2.2075 l 0,-1.3163 c 0,-1.22 0.9875,-2.2075 2.2075,-2.2075 1.22,0 2.2075,0.9875 2.2075,2.2075 l 0,1.3163 c 0,1.22 -0.9875,2.2075 -2.2075,2.2075 m 0,6.8362 c -1.22,0 -2.2075,-0.9875 -2.2075,-2.2075 l 0,-1.3175 c 0,-1.2187 0.9875,-2.2062 2.2075,-2.2062 1.22,0 2.2075,0.9875 2.2075,2.2062 l 0,1.3175 c 0,1.22 -0.9875,2.2075 -2.2075,2.2075 m 0,6.8363 c -1.22,0 -2.2075,-0.9888 -2.2075,-2.2075 l 0,-1.3188 c 0,-1.2187 0.9875,-2.2062 2.2075,-2.2062 1.22,0 2.2075,0.9875 2.2075,2.2062 l 0,1.3188 c 0,1.2187 -0.9875,2.2075 -2.2075,2.2075 m 0,6.8337 c -1.22,0 -2.2075,-0.9875 -2.2075,-2.2062 l 0,-1.3175 c 0,-1.22 0.9875,-2.2075 2.2075,-2.2075 1.22,0 2.2075,0.9875 2.2075,2.2075 l 0,1.3175 c 0,1.2187 -0.9875,2.2062 -2.2075,2.2062 m 0,6.8363 c -1.22,0 -2.2075,-0.9875 -2.2075,-2.2075 l 0,-1.3163 c 0,-1.22 0.9875,-2.2075 2.2075,-2.2075 1.22,0 2.2075,0.9875 2.2075,2.2075 l 0,1.3163 c 0,1.22 -0.9875,2.2075 -2.2075,2.2075 m 0,6.835 c -1.22,0 -2.2075,-0.9875 -2.2075,-2.2075 l 0,-1.3175 c 0,-1.2188 0.9875,-2.2063 2.2075,-2.2063 1.22,0 2.2075,0.9875 2.2075,2.2063 l 0,1.3175 c 0,1.22 -0.9875,2.2075 -2.2075,2.2075 m 0,6.8362 c -1.22,0 -2.2075,-0.9875 -2.2075,-2.2075 l 0,-1.3175 c 0,-1.2187 0.9875,-2.2062 2.2075,-2.2062 1.22,0 2.2075,0.9875 2.2075,2.2062 l 0,1.3175 c 0,1.22 -0.9875,2.2075 -2.2075,2.2075"
       style="fill:#1d1d1b;fill-opacity:1;fill-rule:nonzero;stroke:none"
       id="path3455"
       inkscape:connector-curvature="0" />
    <path
       d="m 452.81191,706.86361 c -1.4113,0 -2.5563,-1.145 -2.5563,-2.5562 l 0,-8.3338 c 0,-1.4112 1.145,-2.5562 2.5563,-2.5562 1.4112,0 2.5562,1.145 2.5562,2.5562 l 0,8.3338 c 0,1.4112 -1.145,2.5562 -2.5562,2.5562"
       style="fill:#1d1d1b;fill-opacity:1;fill-rule:nonzero;stroke:none"
       id="path3459"
       inkscape:connector-curvature="0" />
    <path
       d="m 467.39561,765.47091 c -1.4475,0 -2.6225,-1.1738 -2.6225,-2.6225 l 0,-66.6663 c 0,-1.4475 1.175,-2.6212 2.6225,-2.6212 1.4475,0 2.6225,1.1737 2.6225,2.6212 l 0,66.6663 c 0,1.4487 -1.175,2.6225 -2.6225,2.6225"
       style="fill:#868686;fill-opacity:1;fill-rule:nonzero;stroke:none"
       id="path3463"
       inkscape:connector-curvature="0" />
    <path
       d="m 442.17711,685.67951 c -0.2987,0 -0.6025,-0.051 -0.9,-0.16 -1.3075,-0.4787 -7.8525,-3.1062 -8.2925,-7.8525 -0.2487,-2.6537 1.365,-5.0337 4.7925,-7.0712 11.1238,-6.6113 26.2488,8.9387 26.8863,9.6037 1.0025,1.045 0.9675,2.7025 -0.075,3.705 -1.0463,1.0025 -2.705,0.9675 -3.7075,-0.074 -3.5525,-3.6925 -14.1525,-12.46 -20.4225,-8.7288 -1.925,1.1438 -2.2675,1.9313 -2.2538,2.0788 0.075,0.825 2.5388,2.55 4.88,3.4162 1.3563,0.5025 2.0513,2.0075 1.5525,3.365 -0.3912,1.0613 -1.3925,1.7175 -2.46,1.7175"
       style="fill:#868686;fill-opacity:1;fill-rule:nonzero;stroke:none"
       id="path3467"
       inkscape:connector-curvature="0" />
    <path
       d="m 478.71521,685.67951 c -1.0687,0 -2.0725,-0.6575 -2.4625,-1.7212 -0.4975,-1.36 0.2013,-2.865 1.5613,-3.3625 2.3375,-0.8663 4.8012,-2.59 4.8762,-3.415 0.012,-0.1488 -0.33,-0.935 -2.2537,-2.0788 -6.2863,-3.7425 -16.8763,5.0313 -20.4225,8.7288 -1.0025,1.0437 -2.6638,1.0775 -3.7075,0.076 -1.045,-1.0037 -1.0788,-2.6625 -0.076,-3.7075 0.6375,-0.665 15.7588,-16.215 26.8863,-9.6037 3.4287,2.0375 5.0412,4.4175 4.7937,7.0712 -0.44,4.7463 -6.9862,7.3738 -8.2937,7.8525 -0.2975,0.1088 -0.6025,0.16 -0.9013,0.16"
       style="fill:#868686;fill-opacity:1;fill-rule:nonzero;stroke:none"
       id="path3471"
       inkscape:connector-curvature="0" />
  </g>
</svg>
